<?xml version="1.0" standalone="no"?>
<!DOCTYPE svg PUBLIC "-//W3C//DTD SVG 20010904//EN"
 "http://www.w3.org/TR/2001/REC-SVG-20010904/DTD/svg10.dtd">
<svg version="1.0" xmlns="http://www.w3.org/2000/svg"
 width="1724.000000pt" height="1724.000000pt" viewBox="0 0 1724.000000 1724.000000"
 preserveAspectRatio="xMidYMid meet">
<metadata>
Created by potrace 1.11, written by Peter Selinger 2001-2013
</metadata>
<g transform="translate(0.000000,1724.000000) scale(0.100000,-0.100000)"
fill="#000000" stroke="none">
<path d="M8399 17216 c-2 -2 -69 -7 -149 -10 -80 -4 -158 -9 -175 -11 -16 -2
-66 -6 -110 -10 -44 -3 -93 -8 -110 -10 -16 -2 -55 -7 -85 -10 -30 -3 -72 -7
-92 -10 -74 -10 -104 -14 -153 -20 -27 -4 -61 -8 -75 -11 -14 -2 -41 -7 -60
-10 -19 -3 -82 -14 -140 -24 -58 -11 -116 -21 -130 -24 -389 -70 -942 -232
-1357 -397 -649 -258 -1274 -635 -1660 -1000 -67 -63 -75 -77 -27 -46 70 46
500 267 518 267 2 0 33 13 68 29 155 72 426 175 658 249 115 37 359 107 405
116 11 2 47 11 80 19 33 9 74 18 90 21 17 3 39 7 50 10 64 15 114 26 145 31
50 8 141 24 170 30 37 7 367 53 425 59 28 3 82 8 120 11 39 3 90 8 115 10 265
22 933 23 1085 0 17 -2 71 -7 120 -10 91 -7 101 -8 209 -19 62 -7 95 -11 161
-21 22 -4 56 -8 75 -11 19 -2 46 -6 60 -9 14 -3 41 -7 60 -10 177 -28 550
-105 655 -135 17 -5 55 -16 85 -24 381 -103 745 -231 1098 -387 142 -63 460
-221 547 -272 28 -17 75 -44 105 -60 279 -153 766 -498 1020 -723 413 -365
677 -652 941 -1021 239 -336 439 -694 607 -1088 97 -229 243 -663 277 -822 2
-10 15 -65 29 -123 14 -58 28 -121 31 -140 3 -19 14 -82 25 -140 11 -58 26
-163 35 -235 8 -71 17 -143 20 -160 19 -138 26 -606 11 -805 -5 -63 -10 -135
-12 -160 -1 -25 -5 -58 -8 -75 -3 -16 -8 -55 -12 -85 -3 -30 -8 -58 -10 -61
-1 -3 -6 -28 -9 -55 -32 -247 -162 -698 -271 -942 -13 -29 -24 -55 -24 -58 0
-3 -33 -72 -74 -153 -79 -159 -195 -357 -285 -486 -197 -285 -565 -664 -860
-885 -18 -14 -45 -34 -59 -46 -63 -48 -176 -126 -322 -219 -118 -77 -412 -231
-555 -291 -211 -90 -490 -183 -630 -210 -11 -2 -42 -8 -70 -14 -332 -68 -624
-74 -1005 -19 -74 11 -90 14 -140 24 -14 2 -38 7 -55 10 -16 2 -52 9 -80 15
-27 6 -61 13 -75 15 -74 16 -271 73 -383 112 -867 299 -1511 875 -1871 1673
-61 137 -135 365 -171 530 -33 151 -42 215 -60 400 -5 60 -6 378 -1 410 3 14
7 54 10 90 7 87 41 276 66 375 114 437 352 847 666 1144 52 49 94 91 94 94 0
22 -286 30 -420 11 -455 -63 -877 -296 -1230 -680 -30 -33 -64 -71 -75 -85
-11 -13 -36 -45 -56 -69 -247 -308 -425 -741 -484 -1180 -3 -25 -8 -56 -10
-70 -32 -205 -36 -515 -10 -835 7 -86 25 -214 46 -325 6 -30 13 -68 16 -85 10
-61 73 -302 93 -359 23 -69 26 -93 4 -54 -26 50 -121 290 -169 428 -89 262
-175 631 -201 870 -3 30 -7 57 -9 60 -2 3 -6 46 -10 95 -4 50 -9 99 -11 110
-23 120 -22 719 1 940 2 22 7 67 10 100 13 127 29 243 51 365 9 47 17 96 20
110 2 14 11 57 19 95 158 725 437 1382 850 2005 460 693 1039 1257 1690 1647
181 108 484 252 648 306 29 10 20 23 -55 79 -344 256 -791 407 -1383 469 -189
20 -750 16 -885 -5 -14 -3 -54 -7 -90 -11 -36 -3 -80 -8 -97 -11 -18 -2 -50
-6 -70 -9 -72 -10 -218 -37 -313 -56 -52 -11 -105 -22 -118 -25 -85 -17 -267
-66 -412 -110 -888 -273 -1684 -749 -2327 -1392 -662 -662 -1141 -1440 -1459
-2372 -43 -124 -62 -170 -59 -140 33 323 75 559 166 922 116 466 300 1000 489
1423 10 22 38 85 63 140 25 55 72 156 106 224 33 69 61 127 61 129 0 16 -238
-144 -345 -233 -133 -110 -373 -352 -481 -485 -16 -19 -31 -37 -34 -40 -4 -3
-31 -36 -61 -75 -315 -397 -587 -842 -769 -1255 -200 -452 -393 -1083 -495
-1615 -15 -83 -75 -440 -80 -482 -3 -26 -7 -61 -10 -78 -11 -74 -30 -251 -41
-385 -3 -41 -7 -91 -9 -110 -28 -243 -27 -1079 0 -1401 17 -197 25 -273 50
-489 3 -25 8 -67 10 -95 5 -44 24 -167 41 -260 3 -16 14 -70 25 -120 11 -49
22 -106 25 -125 7 -40 90 -380 104 -425 5 -16 33 -108 61 -203 162 -547 396
-1110 682 -1637 196 -363 502 -833 738 -1133 33 -42 72 -92 87 -111 40 -52
175 -215 182 -221 3 -3 16 -18 28 -34 80 -104 426 -465 633 -662 227 -215 500
-443 750 -629 73 -55 136 -102 139 -105 3 -3 12 -9 21 -15 9 -5 104 -68 211
-140 223 -149 192 -130 373 -238 444 -267 931 -501 1415 -680 367 -136 763
-253 1125 -332 66 -15 129 -29 140 -31 11 -3 32 -6 47 -9 14 -2 61 -10 105
-19 43 -9 92 -18 108 -20 104 -17 225 -36 255 -40 133 -19 191 -26 235 -31 28
-3 68 -7 90 -10 42 -5 147 -14 225 -20 200 -16 346 -20 685 -19 412 0 538 5
770 29 33 4 78 8 100 10 121 11 162 16 185 20 14 2 44 7 68 10 67 8 116 15
137 19 11 2 43 7 70 10 28 4 57 9 65 11 8 2 32 6 53 9 62 10 108 17 131 22 11
3 55 11 96 19 41 8 85 17 98 20 13 2 31 6 40 9 9 3 32 8 51 11 19 3 38 8 42
11 4 2 29 9 56 14 26 5 58 11 69 14 47 10 334 88 414 113 47 15 90 28 95 29
27 6 336 112 452 155 352 131 842 355 1101 503 35 20 65 36 67 36 1 0 54 30
116 66 63 37 128 74 144 84 100 57 482 307 505 330 3 3 34 25 70 50 36 24 70
48 75 52 6 5 42 32 80 60 39 29 75 56 80 60 6 5 39 31 75 60 73 57 137 108
154 123 6 6 38 32 71 60 33 27 65 54 71 60 7 5 33 28 59 50 25 22 62 55 81 74
19 18 34 31 34 29 0 -2 37 31 83 75 170 163 283 276 406 406 69 74 138 147
154 162 15 16 27 31 27 33 0 3 10 16 23 28 34 35 121 137 169 198 23 30 48 60
54 65 6 6 42 50 80 100 38 49 75 97 81 105 7 8 44 58 82 110 39 52 74 100 78
105 5 6 26 37 48 70 22 33 46 64 53 68 6 4 12 12 12 17 0 5 35 62 78 127 43
65 89 136 102 158 13 22 27 42 30 45 4 3 9 12 13 20 4 8 17 31 29 52 24 39
161 276 198 343 12 22 27 46 32 53 6 6 8 12 4 12 -3 0 4 17 17 37 22 35 217
429 217 438 0 2 16 38 35 80 130 281 288 716 408 1125 72 243 173 689 212 935
22 139 45 297 50 340 3 28 7 70 10 95 3 25 7 63 10 85 2 22 7 72 10 110 3 39
8 84 10 100 26 203 27 1247 0 1384 -2 10 -6 57 -10 107 -3 49 -8 100 -10 114
-2 14 -7 50 -10 80 -14 121 -23 194 -41 305 -7 50 -16 108 -20 130 -6 40 -67
357 -78 405 -3 14 -11 50 -17 80 -6 30 -29 125 -51 210 -244 958 -629 1825
-1176 2649 -259 390 -500 695 -827 1051 -80 87 -494 502 -570 571 -71 65 -235
205 -360 309 -49 41 -115 95 -144 120 -30 25 -107 84 -170 132 -64 48 -121 92
-126 96 -33 27 -338 230 -435 289 -534 327 -1156 609 -1783 809 -227 72 -560
165 -647 180 -14 3 -38 9 -55 14 -16 5 -120 27 -230 50 -183 36 -283 54 -465
81 -36 5 -78 11 -95 14 -16 2 -55 7 -85 10 -30 3 -66 8 -80 10 -14 2 -59 6
-100 10 -41 4 -87 9 -103 10 -15 2 -73 7 -130 10 -56 4 -118 9 -137 12 -41 5
-846 13 -851 9z m-2519 -9621 c0 -5 -5 -3 -10 5 -5 8 -10 20 -10 25 0 6 5 3
10 -5 5 -8 10 -19 10 -25z"/>
</g>
</svg>
