<?xml version="1.0" standalone="no"?>
<!DOCTYPE svg PUBLIC "-//W3C//DTD SVG 20010904//EN"
 "http://www.w3.org/TR/2001/REC-SVG-20010904/DTD/svg10.dtd">
<svg version="1.0" xmlns="http://www.w3.org/2000/svg"
 width="500.000000pt" height="500.000000pt" viewBox="0 0 500.000000 500.000000"
 preserveAspectRatio="xMidYMid meet">
<metadata>
Created by potrace 1.14, written by Peter Selinger 2001-2017
</metadata>
<g transform="translate(0.000000,500.000000) scale(0.100000,-0.100000)"
fill="#000000" stroke="none">
<path d="M0 2500 l0 -2500 2500 0 2500 0 0 2500 0 2500 -2500 0 -2500 0 0
-2500z m2335 1075 c33 -9 98 -35 145 -57 119 -57 231 -169 286 -285 22 -45 41
-83 44 -83 3 0 23 35 45 78 53 103 181 233 280 284 110 57 195 79 322 85 193
10 362 -33 495 -123 131 -89 214 -204 265 -369 l27 -90 4 -572 3 -573 145 0
144 0 0 -235 0 -235 -450 0 -449 0 -3 703 c-3 625 -6 708 -21 760 -40 137
-110 219 -213 252 -87 27 -243 18 -319 -20 -99 -48 -157 -122 -201 -255 -16
-49 -18 -104 -22 -507 l-3 -452 143 -3 143 -3 0 -235 0 -235 -450 0 -450 0 -5
705 c-5 627 -8 711 -23 763 -35 118 -90 191 -176 231 -39 18 -65 21 -166 21
-111 0 -125 -2 -182 -29 -104 -48 -170 -133 -209 -271 -15 -51 -18 -123 -22
-502 l-4 -443 209 -2 208 -3 0 -235 0 -235 -660 0 -660 0 0 235 0 235 142 3
143 3 0 604 0 605 -145 0 -145 0 0 235 0 235 453 -2 452 -3 5 -154 5 -155 29
44 c95 144 258 254 438 295 84 19 319 13 403 -10z"/>
</g>
</svg>
