<svg width="2253" height="547" viewBox="0 0 2253 547" fill="none" xmlns="http://www.w3.org/2000/svg">
<g clip-path="url(#clip0_2858_263)">
<path d="M17.9152 215.802H136.218C164.634 215.802 188.265 221.166 207.112 231.895C225.96 242.333 240.022 258.716 249.301 281.043C258.87 303.079 263.654 331.35 263.654 365.855C263.654 400.65 258.87 429.066 249.301 451.103C240.022 473.139 225.96 489.522 207.112 500.25C188.555 510.689 164.924 515.908 136.218 515.908H17.9152V215.802ZM131.868 471.544C155.065 471.544 172.172 465.165 183.191 452.407C194.209 439.359 199.718 418.917 199.718 391.081V340.629C199.718 312.793 194.209 292.496 183.191 279.738C172.172 266.69 155.065 260.166 131.868 260.166H77.9364V471.544H131.868ZM313.556 326.276H287.025V283.652H372.272V515.908H313.556V326.276ZM310.077 215.802H374.012V264.515H310.077V215.802ZM515.567 520.257C484.541 520.257 460.765 514.023 444.237 501.555C428 488.797 417.851 468.79 413.792 441.534H472.073V445.883C472.073 451.682 473.523 456.902 476.423 461.541C479.322 465.89 483.961 469.37 490.34 471.979C497.01 474.589 505.418 475.894 515.567 475.894C529.195 475.894 539.488 473.864 546.447 469.805C553.406 465.745 556.886 459.801 556.886 451.972C556.886 445.593 554.711 440.664 550.362 437.185C546.302 433.705 539.053 430.661 528.615 428.051L480.772 418.047C458.155 412.828 441.628 405.144 431.189 394.996C421.041 384.557 415.966 370.494 415.966 352.807C415.966 329.031 424.375 310.908 441.193 298.44C458.3 285.682 482.802 279.303 514.697 279.303C545.432 279.303 568.774 285.682 584.722 298.44C600.959 310.908 611.108 330.77 615.167 358.026H557.321V353.677C557.321 347.878 555.871 342.803 552.971 338.454C550.072 333.815 545.432 330.19 539.053 327.581C532.674 324.971 524.555 323.666 514.697 323.666C501.649 323.666 491.645 325.696 484.686 329.755C478.017 333.815 474.683 339.759 474.683 347.588C474.683 353.967 476.713 358.896 480.772 362.376C485.121 365.855 492.225 368.9 502.084 371.509L549.927 381.513C572.833 386.732 589.506 394.561 599.944 404.999C610.673 415.148 616.037 428.921 616.037 446.318C616.037 470.095 607.338 488.362 589.941 501.12C572.833 513.878 548.042 520.257 515.567 520.257ZM708.777 515.908C696.889 515.908 687.755 512.718 681.376 506.339C675.287 499.96 672.242 490.827 672.242 478.938V283.652L692.249 237.114H730.959V473.284H776.627V515.908H708.777ZM637.012 283.652H776.627V326.276H637.012V283.652ZM822.397 326.276H795.866V283.652H881.113V515.908H822.397V326.276ZM818.918 215.802H882.853V264.515H818.918V215.802ZM937.856 258.426H911.324V215.802H996.572V515.908H937.856V258.426ZM1053.81 258.426H1027.28V215.802H1112.53V515.908H1053.81V258.426ZM1266.32 520.257C1243.12 520.257 1223.26 515.618 1206.73 506.339C1190.5 497.061 1178.03 483.433 1169.33 465.455C1160.63 447.478 1156.28 425.586 1156.28 399.78C1156.28 373.974 1160.63 352.082 1169.33 334.105C1178.03 316.127 1190.5 302.499 1206.73 293.221C1223.26 283.942 1243.12 279.303 1266.32 279.303C1288.94 279.303 1308.07 283.652 1323.73 292.351C1339.68 300.76 1351.86 313.373 1360.27 330.19C1368.68 346.718 1372.88 367.015 1372.88 391.081V411.088H1194.12V373.684H1352.87L1314.16 396.301V382.383C1314.16 361.796 1310.25 346.863 1302.42 337.584C1294.88 328.306 1282.85 323.666 1266.32 323.666C1249.79 323.666 1237.61 328.306 1229.79 337.584C1222.25 346.863 1218.48 361.796 1218.48 382.383V415.873C1218.48 436.17 1222.25 451.103 1229.79 460.671C1237.61 469.95 1249.79 474.589 1266.32 474.589C1276.18 474.589 1284.3 472.994 1290.68 469.805C1297.35 466.615 1302.13 462.846 1305.03 458.496C1307.93 454.147 1309.38 449.798 1309.38 445.448V441.534H1369.84C1364.62 467.34 1353.16 486.912 1335.48 500.25C1317.79 513.588 1294.74 520.257 1266.32 520.257ZM1491.33 520.257C1473.93 520.257 1458.56 515.473 1445.23 505.904C1432.18 496.046 1422.03 482.128 1414.78 464.151C1407.82 445.883 1404.34 424.426 1404.34 399.78C1404.34 374.844 1407.82 353.387 1414.78 335.41C1421.74 317.142 1431.74 303.224 1444.79 293.656C1458.13 284.087 1473.64 279.303 1491.33 279.303C1507.57 279.303 1520.61 283.217 1530.47 291.046C1540.62 298.585 1547.87 310.183 1552.22 325.841H1565.27C1562.37 299.745 1560.92 281.478 1560.92 271.039V258.426H1534.82V215.802H1619.63V473.284H1644.86V515.908H1605.72C1593.83 515.908 1584.69 512.718 1578.32 506.339C1572.23 499.96 1569.18 490.827 1569.18 478.938V469.37H1555.7C1551.06 486.187 1543.23 498.945 1532.21 507.644C1521.48 516.053 1507.86 520.257 1491.33 520.257ZM1513.94 474.589C1530.18 474.589 1542.07 469.95 1549.61 460.671C1557.15 451.103 1560.92 436.17 1560.92 415.873V383.687C1560.92 363.39 1557.15 348.603 1549.61 339.324C1542.07 329.755 1530.18 324.971 1513.94 324.971C1497.42 324.971 1485.24 329.755 1477.41 339.324C1469.87 348.603 1466.1 363.39 1466.1 383.687V415.873C1466.1 436.17 1469.87 451.103 1477.41 460.671C1485.24 469.95 1497.42 474.589 1513.94 474.589Z" fill="black"/>
<path d="M1882.85 516.646H1824.5V39H1882.85V516.646ZM1933.55 288.39H2181.23V271.482L2017.25 212.708V165.406L2181.23 106.631V89.7234H1986.07V39H2233.74V135.415L2100.14 180.704V197.611L2233.74 242.9V339.315H1933.55V288.39ZM1933.55 89.7234H1985.86V142.057H1933.55V89.7234Z" fill="black"/>
</g>
<defs>
<clipPath id="clip0_2858_263">
<rect width="2252.2" height="546" fill="white" transform="translate(0 0.268799)"/>
</clipPath>
</defs>
</svg>
