<?xml version="1.0" encoding="utf-8"?>
<svg xmlns="http://www.w3.org/2000/svg" width="2252.2px" height="546px" viewBox="0 0 2252.2 546">
  <defs>
    <style>.cls-1{font-size:553px;fill:#fff;font-family:ZillaSlab-Bold, Zilla Slab;font-weight:700;letter-spacing:0.03em;}.cls-2{letter-spacing:0em;}.cls-3{letter-spacing:-0.12em;}.cls-4{letter-spacing:-0.05em;}.cls-5{letter-spacing:0em;}</style>
  </defs>
  <path d="M 2040.63 449.932 C 2017.07 449.932 1996.29 443.459 1978.24 430.512 C 1960.57 417.172 1946.88 398.34 1937.06 374.016 C 1927.63 349.299 1922.94 320.268 1922.94 286.923 C 1922.94 253.186 1927.63 224.15 1937.06 199.826 C 1946.45 175.115 1960 156.283 1977.66 143.335 C 1995.72 130.388 2016.69 123.914 2040.63 123.914 C 2062.61 123.914 2080.23 129.21 2093.59 139.802 C 2107.33 150.005 2117.1 165.696 2122.99 186.884 L 2140.66 186.884 C 2136.73 151.571 2134.76 126.859 2134.76 112.734 L 2134.76 95.669 L 2099.48 95.669 L 2099.48 38 L 2214.2 38 L 2214.2 386.374 L 2248.34 386.374 L 2248.34 444.048 L 2195.38 444.048 C 2179.3 444.048 2166.94 439.729 2158.32 431.101 C 2150.09 422.467 2145.97 410.109 2145.97 394.026 L 2145.97 381.078 L 2127.73 381.078 C 2121.45 403.832 2110.82 421.093 2095.93 432.863 C 2081.43 444.244 2062.99 449.932 2040.63 449.932 Z M 2071.23 388.141 C 2093.2 388.141 2109.29 381.864 2119.49 369.309 C 2129.69 356.362 2134.76 336.16 2134.76 308.695 L 2134.76 265.152 C 2134.76 237.687 2129.69 217.677 2119.49 205.127 C 2109.29 192.18 2093.2 185.706 2071.23 185.706 C 2048.86 185.706 2032.39 192.18 2021.76 205.127 C 2011.57 217.677 2006.49 237.687 2006.49 265.152 L 2006.49 308.695 C 2006.49 336.16 2011.57 356.362 2021.76 369.309 C 2032.39 381.864 2048.86 388.141 2071.23 388.141 Z" fill="black" style=""/>
  <path d="M 1736.2 449.932 C 1704.79 449.932 1677.92 443.655 1655.56 431.101 C 1633.59 418.546 1616.73 400.107 1604.95 375.783 C 1593.17 351.459 1587.28 321.839 1587.28 286.923 C 1587.28 252.008 1593.17 222.388 1604.95 198.064 C 1616.73 173.74 1633.59 155.301 1655.56 142.746 C 1677.92 130.192 1704.79 123.914 1736.2 123.914 C 1766.79 123.914 1792.65 129.799 1813.86 141.568 C 1835.46 152.945 1851.93 170.015 1863.28 192.769 C 1874.67 215.129 1880.37 242.594 1880.37 275.154 L 1880.37 302.226 L 1638.47 302.226 L 1638.47 251.615 L 1853.27 251.615 L 1800.93 282.217 L 1800.93 263.385 C 1800.93 235.532 1795.62 215.326 1785.04 202.771 C 1774.84 190.216 1758.56 183.939 1736.2 183.939 C 1713.79 183.939 1697.32 190.216 1686.73 202.771 C 1676.54 215.326 1671.46 235.532 1671.46 263.385 L 1671.46 308.7 C 1671.46 336.16 1676.54 356.367 1686.73 369.309 C 1697.32 381.864 1713.79 388.141 1736.2 388.141 C 1749.51 388.141 1760.47 385.986 1769.14 381.667 C 1778.14 377.353 1784.61 372.254 1788.53 366.369 C 1792.46 360.484 1794.42 354.6 1794.42 348.715 L 1794.42 343.419 L 1876.25 343.419 C 1869.16 378.335 1853.65 404.813 1829.76 422.86 C 1805.82 440.907 1774.65 449.932 1736.2 449.932 Z" fill="black" style=""/>
  <path d="M 1448.67 95.669 L 1412.75 95.669 L 1412.75 38 L 1528.1 38 L 1528.1 444.048 L 1448.67 444.048 L 1448.67 95.669 Z" fill="black" style=""/>
  <path d="M 1279.98 95.669 L 1244.12 95.669 L 1244.12 38 L 1359.41 38 L 1359.41 444.048 L 1279.98 444.048 L 1279.98 95.669 Z" fill="black" style=""/>
  <path d="M 1112.01 187.468 L 1076.1 187.468 L 1076.1 129.799 L 1191.44 129.799 L 1191.44 444.048 L 1112.01 444.048 L 1112.01 187.468 Z M 1107.32 38 L 1193.79 38 L 1193.79 103.905 L 1107.32 103.905 L 1107.32 38 Z" fill="black" style=""/>
  <path d="M 940.591 444.048 C 924.551 444.048 912.197 439.734 903.531 431.101 C 895.295 422.467 891.177 410.109 891.177 394.026 L 891.177 129.799 L 918.278 66.834 L 970.613 66.834 L 970.613 386.374 L 1032.43 386.374 L 1032.43 444.048 L 940.591 444.048 Z M 843.535 129.799 L 1032.43 129.799 L 1032.43 187.473 L 843.535 187.473 L 843.535 129.799 Z" fill="black" style=""/>
  <path d="M 679.204 449.932 C 637.212 449.932 605.083 441.496 582.674 424.627 C 560.745 407.365 547.002 380.298 541.496 343.419 L 620.357 343.419 L 620.357 349.304 C 620.357 357.147 622.321 364.21 626.247 370.487 C 630.173 376.372 636.446 381.078 645.064 384.612 C 654.114 388.141 665.462 389.908 679.204 389.908 C 697.639 389.908 711.572 387.159 721.005 381.667 C 730.39 376.175 735.13 368.136 735.13 357.54 C 735.13 348.911 732.162 342.241 726.272 337.535 C 720.814 332.823 710.998 328.705 696.873 325.176 L 632.136 311.64 C 601.54 304.577 579.179 294.182 565.054 280.45 C 551.312 266.329 544.465 247.301 544.465 223.37 C 544.465 191.198 555.813 166.678 578.557 149.809 C 601.731 132.548 634.866 123.914 678.007 123.914 C 719.617 123.914 751.171 132.548 772.765 149.809 C 794.743 166.678 808.485 193.554 813.944 230.432 L 735.705 230.432 L 735.705 224.548 C 735.705 216.7 733.742 209.834 729.815 203.949 C 725.889 197.672 719.617 192.769 710.998 189.235 C 702.331 185.706 691.366 183.939 678.007 183.939 C 660.387 183.939 646.836 186.688 637.403 192.18 C 628.402 197.672 623.901 205.716 623.901 216.307 C 623.901 224.94 626.63 231.606 632.136 236.317 C 638.026 241.024 647.602 245.142 660.961 248.675 L 725.698 262.207 C 756.677 269.269 779.229 279.861 793.355 293.986 C 807.863 307.719 815.141 326.354 815.141 349.893 C 815.141 382.06 803.362 406.777 779.852 424.038 C 756.677 441.299 723.16 449.932 679.204 449.932 Z" fill="black" style=""/>
  <path d="M 405.895 187.468 L 369.983 187.468 L 369.983 129.799 L 485.331 129.799 L 485.331 444.048 L 405.895 444.048 L 405.895 187.468 Z M 401.154 38 L 487.677 38 L 487.677 103.905 L 401.154 103.905 L 401.154 38 Z" fill="black" style=""/>
  <path d="M 0 38 L 160.069 38 C 198.47 38 230.455 45.254 255.976 59.772 C 281.497 73.892 300.507 96.062 313.052 126.27 C 325.98 156.086 332.492 194.334 332.492 241.024 C 332.492 288.101 325.98 326.546 313.052 356.362 C 300.507 386.178 281.497 408.347 255.976 422.86 C 230.838 436.985 198.901 444.048 160.069 444.048 L 0 444.048 L 0 38 Z M 154.18 384.023 C 185.542 384.023 208.717 375.39 223.608 358.129 C 238.5 340.475 245.969 312.818 245.969 275.154 L 245.969 206.889 C 245.969 169.23 238.5 141.765 223.608 124.503 C 208.717 106.849 185.542 98.02 154.18 98.02 L 81.208 98.02 L 81.208 384.023 L 154.18 384.023 Z" fill="black" style=""/>
</svg>