<?xml version="1.0" encoding="UTF-8"?>
<svg width="1003px" height="1001px" viewBox="0 0 1003 1001" version="1.1" xmlns="http://www.w3.org/2000/svg" xmlns:xlink="http://www.w3.org/1999/xlink">
    <!-- Generator: Sketch 57.1 (83088) - https://sketch.com -->
    <title>Slice</title>
    <desc>Created with Sketch.</desc>
    <defs>
        <radialGradient cx="89.4141481%" cy="18.9428732%" fx="89.4141481%" fy="18.9428732%" r="113.744747%" gradientTransform="translate(0.894141,0.189429),scale(0.997630,1.000000),translate(-0.894141,-0.189429)" id="radialGradient-1">
            <stop stop-color="#FFF44F" offset="0%"></stop>
            <stop stop-color="#FF980E" offset="29.48518%"></stop>
            <stop stop-color="#FF5D36" offset="43.15208%"></stop>
            <stop stop-color="#FF3750" offset="53.02083%"></stop>
            <stop stop-color="#F5156C" offset="74.93189%"></stop>
            <stop stop-color="#F1136E" offset="76.47903%"></stop>
            <stop stop-color="#DA057A" offset="88.00957%"></stop>
            <stop stop-color="#D2007F" offset="95.27844%"></stop>
        </radialGradient>
        <radialGradient cx="8.28678317%" cy="23.6482863%" fx="8.28678317%" fy="23.6482863%" r="67.3171846%" gradientTransform="translate(0.082868,0.236483),scale(0.997630,1.000000),translate(-0.082868,-0.236483)" id="radialGradient-2">
            <stop stop-color="#B5007F" offset="0%"></stop>
            <stop stop-color="#F5156C" stop-opacity="0" offset="100%"></stop>
        </radialGradient>
        <radialGradient cx="99.1144781%" cy="12.4707508%" fx="99.1144781%" fy="12.4707508%" r="133.565802%" gradientTransform="translate(0.991145,0.124708),scale(0.997630,1.000000),translate(-0.991145,-0.124708)" id="radialGradient-3">
            <stop stop-color="#FFDD00" stop-opacity="0.6" offset="0%"></stop>
            <stop stop-color="#FFD801" stop-opacity="0.524402" offset="8.36672%"></stop>
            <stop stop-color="#FECA05" stop-opacity="0.4353322" offset="18.22441%"></stop>
            <stop stop-color="#FEB20C" stop-opacity="0.3394448" offset="28.83662%"></stop>
            <stop stop-color="#FD9115" stop-opacity="0.2387661" offset="39.9791%"></stop>
            <stop stop-color="#FB6621" stop-opacity="0.1343033" offset="51.54039%"></stop>
            <stop stop-color="#F9332F" stop-opacity="0.028164" offset="63.28723%"></stop>
            <stop stop-color="#F92433" stop-opacity="0" offset="66.40424%"></stop>
        </radialGradient>
        <radialGradient cx="52.8561238%" cy="55.637258%" fx="52.8561238%" fy="55.637258%" r="172.310462%" gradientTransform="translate(0.528561,0.556373),scale(0.997630,1.000000),translate(-0.528561,-0.556373)" id="radialGradient-4">
            <stop stop-color="#960E18" offset="15.28494%"></stop>
            <stop stop-color="#CC2335" stop-opacity="0.5541388" offset="20.61304%"></stop>
            <stop stop-color="#F13148" stop-opacity="0.1914039" offset="24.94777%"></stop>
            <stop stop-color="#FF3750" stop-opacity="0" offset="27.23507%"></stop>
        </radialGradient>
        <radialGradient cx="39.8478011%" cy="53.4705882%" fx="39.8478011%" fy="53.4705882%" r="172.310462%" gradientTransform="translate(0.398478,0.534706),scale(0.997630,1.000000),translate(-0.398478,-0.534706)" id="radialGradient-5">
            <stop stop-color="#960E18" offset="11.29055%"></stop>
            <stop stop-color="#CC2335" stop-opacity="0.5541388" offset="18.93459%"></stop>
            <stop stop-color="#F13148" stop-opacity="0.1914039" offset="25.15348%"></stop>
            <stop stop-color="#FF3750" stop-opacity="0" offset="28.43499%"></stop>
        </radialGradient>
        <linearGradient x1="40.8716419%" y1="37.0774231%" x2="81.6627057%" y2="83.7311794%" id="linearGradient-6">
            <stop stop-color="#FFBC04" offset="0%"></stop>
            <stop stop-color="#FFA202" stop-opacity="0.4886038" offset="25.96934%"></stop>
            <stop stop-color="#FF8E00" stop-opacity="0" offset="50.78125%"></stop>
        </linearGradient>
        <radialGradient cx="89.7651573%" cy="16.1111706%" fx="89.7651573%" fy="16.1111706%" r="119.039059%" gradientTransform="translate(0.897652,0.161112),scale(0.999802,1.000000),translate(-0.897652,-0.161112)" id="radialGradient-7">
            <stop stop-color="#FF980E" offset="0%"></stop>
            <stop stop-color="#FF7139" offset="29.5012%"></stop>
            <stop stop-color="#FF5B51" offset="48.46462%"></stop>
            <stop stop-color="#FF4F5E" offset="62.60016%"></stop>
            <stop stop-color="#FF4055" offset="73.652%"></stop>
            <stop stop-color="#FF3750" offset="84.28285%"></stop>
        </radialGradient>
        <radialGradient cx="89.7651573%" cy="16.1111706%" fx="89.7651573%" fy="16.1111706%" r="119.039059%" gradientTransform="translate(0.897652,0.161112),scale(0.999802,1.000000),translate(-0.897652,-0.161112)" id="radialGradient-8">
            <stop stop-color="#FFDE08" offset="8.40745%"></stop>
            <stop stop-color="#FFD609" stop-opacity="0.8320085" offset="20.81029%"></stop>
            <stop stop-color="#FFBF0B" stop-opacity="0.5676619" offset="40.32703%"></stop>
            <stop stop-color="#FF9B0F" stop-opacity="0.2420242" offset="64.3689%"></stop>
            <stop stop-color="#FF7B12" stop-opacity="0" offset="82.23758%"></stop>
        </radialGradient>
        <radialGradient cx="62.2687122%" cy="53.1434802%" fx="62.2687122%" fy="53.1434802%" r="58.3822416%" gradientTransform="translate(0.622687,0.531435),scale(0.999802,1.000000),rotate(75.686478),translate(-0.622687,-0.531435)" id="radialGradient-9">
            <stop stop-color="#FF3750" offset="36.33813%"></stop>
            <stop stop-color="#FF444B" stop-opacity="0.7894784" offset="41.11364%"></stop>
            <stop stop-color="#FF7139" stop-opacity="0" offset="59.02234%"></stop>
        </radialGradient>
        <radialGradient cx="52.2074938%" cy="58.0876374%" fx="52.2074938%" fy="58.0876374%" r="58.3822416%" gradientTransform="translate(0.522075,0.580876),scale(0.999802,1.000000),rotate(75.686478),translate(-0.522075,-0.580876)" id="radialGradient-10">
            <stop stop-color="#FF3750" stop-opacity="0.8" offset="21.58888%"></stop>
            <stop stop-color="#FF444B" stop-opacity="0.6315827" offset="27.02094%"></stop>
            <stop stop-color="#FF7139" stop-opacity="0" offset="47.39173%"></stop>
        </radialGradient>
        <radialGradient cx="122.618931%" cy="1.81236897%" fx="122.618931%" fy="1.81236897%" r="260.042619%" gradientTransform="translate(1.226189,0.018124),scale(1.000000,0.982937),translate(-1.226189,-0.018124)" id="radialGradient-11">
            <stop stop-color="#FFF44F" offset="5.35657%"></stop>
            <stop stop-color="#FF980E" offset="45.72717%"></stop>
            <stop stop-color="#FF8424" offset="52.10502%"></stop>
            <stop stop-color="#FF7634" offset="58.7052%"></stop>
            <stop stop-color="#FF7139" offset="63.9343%"></stop>
        </radialGradient>
        <linearGradient x1="73.7759907%" y1="8.64951889%" x2="22.7406011%" y2="87.2771846%" id="linearGradient-12">
            <stop stop-color="#FFF44F" stop-opacity="0.8" offset="0%"></stop>
            <stop stop-color="#FFF44F" stop-opacity="0" offset="75%"></stop>
        </linearGradient>
        <linearGradient x1="49.9999916%" y1="100.409246%" x2="49.9999916%" y2="1.01235757%" id="linearGradient-13">
            <stop stop-color="#3A8EE6" offset="0%"></stop>
            <stop stop-color="#5C79F0" offset="23.59339%"></stop>
            <stop stop-color="#9059FF" offset="62.93269%"></stop>
            <stop stop-color="#C139E6" offset="100%"></stop>
        </linearGradient>
        <linearGradient x1="16.5450947%" y1="8.63826286%" x2="90.3127126%" y2="76.1083519%" id="linearGradient-14">
            <stop stop-color="#9059FF" stop-opacity="0" offset="80.54287%"></stop>
            <stop stop-color="#6E008B" stop-opacity="0.5" offset="100%"></stop>
        </linearGradient>
    </defs>
    <g id="Page-1" stroke="none" stroke-width="1" fill="none" fill-rule="evenodd">
        <g id="Firefox-Horizontal" fill-rule="nonzero">
            <g id="Outlined">
                <g id="Group">
                    <g id="Shape">
                        <path d="M901.500793,196.690842 C810.913208,77.6757278 669.682007,3.5020866 521.14325,0.5448685 C404.782654,-1.7716064 324.383453,33.1124344 278.894226,61.1570282 C339.756103,25.9445725 427.818756,5.9728394 504.924927,6.9553757 C703.282349,9.4826203 916.304138,144.226341 947.943665,387.125725 C984.263184,665.952751 789.60791,898.664604 515.753723,899.36718 C214.47699,900.140068 31.2379761,634.007622 79.1291199,394.969261 C81.5206604,383.032616 80.3268433,371.422813 84.3138733,360.141197 C86.5961761,318.110748 102.5112,252.22995 136.843399,184.914642 C102.154159,202.819366 57.9765243,259.469543 36.164215,311.944458 C4.7190093,387.593628 -6.3628312,478.059998 3.6129722,564.130188 C4.363964,570.609009 5.0441818,577.069092 5.8934783,583.492737 C46.2448348,820.216003 252.346405,1000.43481 500.568832,1000.43481 C777.741806,1000.43481 1002.43431,775.74231 1002.43431,498.571045 C1002.43431,385.242493 964.855469,280.701019 901.500793,196.690842 Z" fill="url(#radialGradient-1)"></path>
                        <g opacity="0.67" fill="url(#radialGradient-2)">
                            <path d="M901.500793,196.690842 C810.913208,77.6757278 669.682007,3.5020866 521.14325,0.5448685 C404.782654,-1.7716064 324.383453,33.1124344 278.894226,61.1570282 C339.756103,25.9445725 427.818756,5.9728394 504.924927,6.9553757 C703.282349,9.4826203 916.304138,144.226341 947.943665,387.125725 C984.263184,665.952751 789.60791,898.664604 515.753723,899.36718 C214.47699,900.140068 31.2379761,634.007622 79.1291199,394.969261 C81.5206604,383.032616 80.3268433,371.422813 84.3138733,360.141197 C86.5961761,318.110748 102.5112,252.22995 136.843399,184.914642 C102.154159,202.819366 57.9765243,259.469543 36.164215,311.944458 C4.7190093,387.593628 -6.3628312,478.059998 3.6129722,564.130188 C4.363964,570.609009 5.0441818,577.069092 5.8934783,583.492737 C46.2448348,820.216003 252.346405,1000.43481 500.568832,1000.43481 C777.741806,1000.43481 1002.43431,775.74231 1002.43431,498.571045 C1002.43431,385.242493 964.855469,280.701019 901.500793,196.690842 Z"></path>
                        </g>
                        <path d="M901.500793,196.690842 C810.913208,77.6757278 669.682007,3.5020866 521.14325,0.5448685 C404.782654,-1.7716064 324.383453,33.1124344 278.894226,61.1570282 C339.756103,25.9445725 427.818756,5.9728394 504.924927,6.9553757 C703.282349,9.4826203 916.304138,144.226341 947.943665,387.125725 C984.263184,665.952751 789.60791,898.664604 515.753723,899.36718 C214.47699,900.140068 31.2379761,634.007622 79.1291199,394.969261 C81.5206604,383.032616 80.3268433,371.422813 84.3138733,360.141197 C86.5961761,318.110748 102.5112,252.22995 136.843399,184.914642 C102.154159,202.819366 57.9765243,259.469543 36.164215,311.944458 C4.7190093,387.593628 -6.3628312,478.059998 3.6129722,564.130188 C4.363964,570.609009 5.0441818,577.069092 5.8934783,583.492737 C46.2448348,820.216003 252.346405,1000.43481 500.568832,1000.43481 C777.741806,1000.43481 1002.43431,775.74231 1002.43431,498.571045 C1002.43431,385.242493 964.855469,280.701019 901.500793,196.690842 Z" fill="url(#radialGradient-3)"></path>
                    </g>
                    <g id="Shape">
                        <path d="M901.500793,196.690842 C810.913208,77.6757278 669.682007,3.5020866 521.14325,0.5448685 C404.782654,-1.7716064 324.383453,33.1124344 278.894226,61.1570282 C339.756103,25.9445725 427.818756,5.9728394 504.924927,6.9553757 C703.282349,9.4826203 916.304138,144.226341 947.943665,387.125725 C984.263184,665.952751 789.60791,898.664604 515.753723,899.36718 C214.47699,900.140068 31.2379761,634.007622 79.1291199,394.969261 C81.5206604,383.032616 80.3268433,371.422813 84.3138733,360.141197 C86.5961761,318.110748 102.5112,252.22995 136.843399,184.914642 C102.154159,202.819366 57.9765243,259.469543 36.164215,311.944458 C4.7190093,387.593628 -6.3628312,478.059998 3.6129722,564.130188 C4.363964,570.609009 5.0441818,577.069092 5.8934783,583.492737 C46.2448348,820.216003 252.346405,1000.43481 500.568832,1000.43481 C777.741806,1000.43481 1002.43431,775.74231 1002.43431,498.571045 C1002.43431,385.242493 964.855469,280.701019 901.500793,196.690842 Z" fill="url(#radialGradient-4)"></path>
                        <path d="M901.500793,196.690842 C810.913208,77.6757278 669.682007,3.5020866 521.14325,0.5448685 C404.782654,-1.7716064 324.383453,33.1124344 278.894226,61.1570282 C339.756103,25.9445725 427.818756,5.9728394 504.924927,6.9553757 C703.282349,9.4826203 916.304138,144.226341 947.943665,387.125725 C984.263184,665.952751 789.60791,898.664604 515.753723,899.36718 C214.47699,900.140068 31.2379761,634.007622 79.1291199,394.969261 C81.5206604,383.032616 80.3268433,371.422813 84.3138733,360.141197 C86.5961761,318.110748 102.5112,252.22995 136.843399,184.914642 C102.154159,202.819366 57.9765243,259.469543 36.164215,311.944458 C4.7190093,387.593628 -6.3628312,478.059998 3.6129722,564.130188 C4.363964,570.609009 5.0441818,577.069092 5.8934783,583.492737 C46.2448348,820.216003 252.346405,1000.43481 500.568832,1000.43481 C777.741806,1000.43481 1002.43431,775.74231 1002.43431,498.571045 C1002.43431,385.242493 964.855469,280.701019 901.500793,196.690842 Z" fill="url(#radialGradient-5)"></path>
                    </g>
                    <path d="M947.943665,387.125732 C951.954346,417.915375 953.137268,448.193451 951.719299,477.704468 C968.338013,475.244751 984.986939,473.015686 1001.66809,471.085022 C996.120239,368.366669 959.698547,273.862884 901.500794,196.690857 C810.913208,77.6757278 669.682007,3.5020866 521.14325,0.5448685 C404.782654,-1.7716064 324.383453,33.1124344 278.894226,61.1570282 C339.756103,25.9445725 427.818756,5.9728394 504.924927,6.9553757 C703.282349,9.4826202 916.304138,144.226349 947.943665,387.125732 Z" id="Path" fill="url(#linearGradient-6)"></path>
                    <g transform="translate(67.000000, 6.000000)" id="Path">
                        <path d="M893.143677,367.258758 C864.938538,113.412735 638.015625,-0.6897736 437.924927,0.9553757 C360.815094,1.5893746 272.756104,19.9445725 211.894226,55.1570282 C183.464447,72.684372 168.673553,87.5286255 167.293915,88.9465942 C168.906921,87.6105804 173.72818,83.6506958 181.725861,78.1748046 C181.987671,77.9918212 182.251923,77.8127441 182.514374,77.6306762 C182.74176,77.4762725 182.979431,77.3179778 183.211609,77.1613616 C212.223419,57.1579436 244.967743,42.6297683 279.592834,32.507286 C332.473389,17.0478667 389.727722,11.859497 444.775574,13.23954 C671.070679,26.2582015 830.765808,213.637703 836.325195,413.091804 C840.926331,578.167915 705.487854,709.814705 549.367432,717.439644 C435.825317,722.984993 328.87207,668.173164 276.600281,558.518989 C264.97168,534.124946 256.443482,509.330452 251.995575,479.357368 C227.231751,312.480873 339.562195,170.170967 442.571045,134.939003 C386.992432,86.5113601 247.755585,89.7961806 144.122864,165.855202 C69.4907379,220.62986 21.0766449,303.968208 5.0368805,403.393959 C-7.192337,479.199226 4.325325,558.030952 34.3574524,628.436592 C64.9588165,700.176765 114.72609,763.422432 177.293488,809.993294 C245.235413,860.564705 327.048981,889.991585 411.374268,896.400947 C423.810181,897.346199 436.282165,897.80854 448.753723,897.80854 C780.323242,897.80854 924.195068,646.721497 893.143677,367.258758 Z" fill="url(#radialGradient-7)"></path>
                        <path d="M893.143677,367.258758 C864.938538,113.412735 638.015625,-0.6897736 437.924927,0.9553757 C360.815094,1.5893746 272.756104,19.9445725 211.894226,55.1570282 C183.464447,72.684372 168.673553,87.5286255 167.293915,88.9465942 C168.906921,87.6105804 173.72818,83.6506958 181.725861,78.1748046 C181.987671,77.9918212 182.251923,77.8127441 182.514374,77.6306762 C182.74176,77.4762725 182.979431,77.3179778 183.211609,77.1613616 C212.223419,57.1579436 244.967743,42.6297683 279.592834,32.507286 C332.473389,17.0478667 389.727722,11.859497 444.775574,13.23954 C671.070679,26.2582015 830.765808,213.637703 836.325195,413.091804 C840.926331,578.167915 705.487854,709.814705 549.367432,717.439644 C435.825317,722.984993 328.87207,668.173164 276.600281,558.518989 C264.97168,534.124946 256.443482,509.330452 251.995575,479.357368 C227.231751,312.480873 339.562195,170.170967 442.571045,134.939003 C386.992432,86.5113601 247.755585,89.7961806 144.122864,165.855202 C69.4907379,220.62986 21.0766449,303.968208 5.0368805,403.393959 C-7.192337,479.199226 4.325325,558.030952 34.3574524,628.436592 C64.9588165,700.176765 114.72609,763.422432 177.293488,809.993294 C245.235413,860.564705 327.048981,889.991585 411.374268,896.400947 C423.810181,897.346199 436.282165,897.80854 448.753723,897.80854 C780.323242,897.80854 924.195068,646.721497 893.143677,367.258758 Z" fill="url(#radialGradient-8)"></path>
                    </g>
                    <g transform="translate(67.000000, 6.000000)" id="Path" opacity="0.53">
                        <path d="M893.143677,367.258758 C864.938538,113.412735 638.015625,-0.6897736 437.924927,0.9553757 C360.815094,1.5893746 272.756104,19.9445725 211.894226,55.1570282 C183.464447,72.684372 168.673553,87.5286255 167.293915,88.9465942 C168.906921,87.6105804 173.72818,83.6506958 181.725861,78.1748046 C181.987671,77.9918212 182.251923,77.8127441 182.514374,77.6306762 C182.74176,77.4762725 182.979431,77.3179778 183.211609,77.1613616 C212.223419,57.1579436 244.967743,42.6297683 279.592834,32.507286 C332.473389,17.0478667 389.727722,11.859497 444.775574,13.23954 C671.070679,26.2582015 830.765808,213.637703 836.325195,413.091804 C840.926331,578.167915 705.487854,709.814705 549.367432,717.439644 C435.825317,722.984993 328.87207,668.173164 276.600281,558.518989 C264.97168,534.124946 256.443482,509.330452 251.995575,479.357368 C227.231751,312.480873 339.562195,170.170967 442.571045,134.939003 C386.992432,86.5113601 247.755585,89.7961806 144.122864,165.855202 C69.4907379,220.62986 21.0766449,303.968208 5.0368805,403.393959 C-7.192337,479.199226 4.325325,558.030952 34.3574524,628.436592 C64.9588165,700.176765 114.72609,763.422432 177.293488,809.993294 C245.235413,860.564705 327.048981,889.991585 411.374268,896.400947 C423.810181,897.346199 436.282165,897.80854 448.753723,897.80854 C780.323242,897.80854 924.195068,646.721497 893.143677,367.258758 Z" fill="url(#radialGradient-9)"></path>
                        <path d="M893.143677,367.258758 C864.938538,113.412735 638.015625,-0.6897736 437.924927,0.9553757 C360.815094,1.5893746 272.756104,19.9445725 211.894226,55.1570282 C183.464447,72.684372 168.673553,87.5286255 167.293915,88.9465942 C168.906921,87.6105804 173.72818,83.6506958 181.725861,78.1748046 C181.987671,77.9918212 182.251923,77.8127441 182.514374,77.6306762 C182.74176,77.4762725 182.979431,77.3179778 183.211609,77.1613616 C212.223419,57.1579436 244.967743,42.6297683 279.592834,32.507286 C332.473389,17.0478667 389.727722,11.859497 444.775574,13.23954 C671.070679,26.2582015 830.765808,213.637703 836.325195,413.091804 C840.926331,578.167915 705.487854,709.814705 549.367432,717.439644 C435.825317,722.984993 328.87207,668.173164 276.600281,558.518989 C264.97168,534.124946 256.443482,509.330452 251.995575,479.357368 C227.231751,312.480873 339.562195,170.170967 442.571045,134.939003 C386.992432,86.5113601 247.755585,89.7961806 144.122864,165.855202 C69.4907379,220.62986 21.0766449,303.968208 5.0368805,403.393959 C-7.192337,479.199226 4.325325,558.030952 34.3574524,628.436592 C64.9588165,700.176765 114.72609,763.422432 177.293488,809.993294 C245.235413,860.564705 327.048981,889.991585 411.374268,896.400947 C423.810181,897.346199 436.282165,897.80854 448.753723,897.80854 C780.323242,897.80854 924.195068,646.721497 893.143677,367.258758 Z" fill="url(#radialGradient-10)"></path>
                    </g>
                    <path d="M616.367432,723.439636 C830.656555,710.43811 922.345337,533.488281 928.092407,407.874115 C937.066772,211.720367 820.400146,0.1820374 511.775574,19.2395325 C456.727722,17.8594895 399.473389,23.0478592 346.592834,38.5072785 C300.236511,52.6492463 268.0401,71.1389924 250.211609,83.1613541 C249.980988,83.320427 249.744507,83.4709397 249.514374,83.6306687 C249.237274,83.8188401 248.995728,83.9899979 248.725861,84.1747971 C243.926819,87.5292588 239.234253,91.0390397 234.65155,94.7012711 C243.232178,88.8445054 349.663788,26.1400071 497.533203,45.500084 C674.679321,68.6932984 836.696655,206.215813 836.696655,387.666496 C836.696655,527.275261 728.545349,633.857842 601.917175,626.249138 C413.77948,614.944458 366.404511,422.483704 464.227295,339.325958 C437.837067,333.65567 388.241424,344.759186 353.712158,396.262726 C322.729553,442.476166 324.478455,513.885193 343.600281,564.518982 C395.87207,674.173157 502.898682,730.324158 616.367432,723.439636 Z" id="Path" fill="url(#radialGradient-11)"></path>
                    <path d="M901.499023,196.690979 C888.066834,179.039612 873.396179,162.506851 857.873291,146.915131 C845.422119,133.733765 832.078735,121.588867 818.065064,110.340653 C826.139465,117.400742 833.911987,124.811523 841.227356,132.708374 C868.366882,162.005249 889.860169,196.615509 902.395691,234.506134 C928.571961,313.625488 926.862976,412.63562 876.889649,490.401062 C817.337036,583.07019 720.386597,628.815491 615.583679,626.587158 C611.051514,626.607117 606.501648,626.525025 601.916199,626.249817 C413.781433,614.943848 366.404816,422.483368 464.229736,339.326813 C437.835938,333.656098 388.244324,344.760071 353.713959,396.262634 C322.730286,442.476257 324.479218,513.885193 343.602081,564.517761 C331.972107,540.125855 323.444946,515.330017 318.997131,485.35846 C294.232391,318.481659 406.563751,176.169861 509.573364,140.93811 C453.993622,92.5117035 314.757965,95.7965088 211.122498,171.855194 C150.735397,216.175629 107.531387,279.208313 84.733078,354.321503 C88.0844727,312.176178 104.042389,249.227814 136.841583,184.91452 C102.155853,202.818909 57.9752655,259.470642 36.1668472,311.943115 C4.7215309,387.593445 -6.3624535,478.060852 3.6118011,564.131531 C4.3664169,570.60791 5.0455741,577.068787 5.8934059,583.494141 C46.2432022,820.216248 252.346744,1000.4353 500.571232,1000.4353 C777.741886,1000.4353 1002.43567,775.741577 1002.43567,498.570923 C1002.43567,385.243012 964.855713,280.701996 901.499023,196.690979 Z" id="Path" fill="url(#linearGradient-12)"></path>
                    <path d="M902.394592,234.506714 C889.858337,196.614685 868.36554,162.003967 841.225647,132.709625 C809.250427,98.196167 769.430725,71.970192 727.2771,51.5460206 C691.414612,34.1700135 653.962158,20.4567185 615.256836,11.9351388 C545.930115,-3.3281707 473.194763,-3.057495 407.69989,10.727089 C336.496033,25.7132188 273.879547,56.4541627 234.279907,94.8860474 C263.972443,76.885788 305.391724,62.2871476 334.904816,54.8478241 C471.862366,20.3251724 622.67157,57.7177124 725.492615,156.091049 C746.164917,175.869125 764.701782,197.999786 779.731262,222.375794 C841.07074,321.861084 835.26709,446.931061 787.443726,520.694824 C751.916382,575.49292 675.838013,626.900147 604.854187,626.341675 C713.753357,632.042236 815.306457,586.231629 876.888611,490.402344 C926.863342,412.635346 928.57019,313.625183 902.394592,234.506714 Z" id="Path" fill="url(#linearGradient-13)"></path>
                    <path d="M902.394592,234.506714 C889.858337,196.614685 868.36554,162.003967 841.225647,132.709625 C809.250427,98.196167 769.430725,71.970192 727.2771,51.5460206 C691.414612,34.1700135 653.962158,20.4567185 615.256836,11.9351388 C545.930115,-3.3281707 473.194763,-3.057495 407.69989,10.727089 C336.496033,25.7132188 273.879547,56.4541627 234.279907,94.8860474 C263.972443,76.885788 305.391724,62.2871476 334.904816,54.8478241 C471.862366,20.3251724 622.67157,57.7177124 725.492615,156.091049 C746.164917,175.869125 764.701782,197.999786 779.731262,222.375794 C841.07074,321.861084 835.26709,446.931061 787.443726,520.694824 C751.916382,575.49292 675.838013,626.900147 604.854187,626.341675 C713.753357,632.042236 815.306457,586.231629 876.888611,490.402344 C926.863342,412.635346 928.57019,313.625183 902.394592,234.506714 Z" id="Path" fill="url(#linearGradient-14)"></path>
                </g>
            </g>
        </g>
    </g>
</svg>