<svg width="23" height="26" viewBox="0 0 23 26" fill="none" xmlns="http://www.w3.org/2000/svg">
<mask id="path-2-inside-1" fill="white">
<rect y="4" width="23" height="22" rx="2"/>
</mask>
<rect y="4" width="23" height="22" rx="2" stroke="#20123A" stroke-width="6" mask="url(#path-2-inside-1)"/>
<path fill-rule="evenodd" clip-rule="evenodd" d="M6.5 0C7.32843 0 8 0.671573 8 1.5V6.5C8 7.32843 7.32843 8 6.5 8C5.67157 8 5 7.32843 5 6.5V1.5C5 0.671573 5.67157 0 6.5 0Z" fill="#20123A"/>
<path fill-rule="evenodd" clip-rule="evenodd" d="M16.5 0C17.3284 0 18 0.671573 18 1.5V6.5C18 7.32843 17.3284 8 16.5 8C15.6716 8 15 7.32843 15 6.5V1.5C15 0.671573 15.6716 0 16.5 0Z" fill="#20123A"/>
<rect x="5" y="10" width="3" height="3" rx="1.5" fill="#20123A"/>
<rect x="15" y="10" width="3" height="3" rx="1.5" fill="#20123A"/>
<rect x="5" y="14" width="3" height="3" rx="1.5" fill="#20123A"/>
<rect x="10" y="14" width="3" height="3" rx="1.5" fill="#20123A"/>
<rect x="10" y="18" width="3" height="3" rx="1.5" fill="#20123A"/>
<rect x="10" y="10" width="3" height="3" rx="1.5" fill="#20123A"/>
<rect x="15" y="14" width="3" height="3" rx="1.5" fill="#20123A"/>
<rect x="5" y="18" width="3" height="3" rx="1.5" fill="#20123A"/>
<rect x="15" y="18" width="3" height="3" rx="1.5" fill="#20123A"/>
</svg>
