<svg width="22" height="14" viewBox="0 0 22 14" fill="none" xmlns="http://www.w3.org/2000/svg">
<path fill-rule="evenodd" clip-rule="evenodd" d="M18.4326 8L14.3058 12.1268C13.8977 12.5349 13.8977 13.1964 14.3058 13.6045C14.7138 14.0125 15.3754 14.0125 15.7834 13.6045L21.5576 7.83021C21.8245 7.65064 22 7.34582 22 7C22 6.99235 21.9999 6.98472 21.9997 6.97711C22.0054 6.70248 21.9035 6.42604 21.6939 6.21648L21.6938 6.21638L15.7835 0.306024C15.3755 -0.102008 14.7139 -0.102008 14.3059 0.306024C13.8978 0.714055 13.8978 1.37561 14.3059 1.78364L18.5222 6H1C0.447715 6 0 6.44772 0 7C0 7.55228 0.447716 8 1 8H18.4326Z" fill="#20123A"/>
</svg>
