<svg width="27" height="27" viewBox="0 0 27 27" fill="none" xmlns="http://www.w3.org/2000/svg">
<path d="M1.6875 1.6875H25.3125C26.2423 1.6875 27 2.44519 27 3.375V12.6562C27 19.6357 21.3233 25.3125 14.3438 25.3125H12.6562C5.67675 25.3125 0 19.6357 0 12.6562V3.375C0 2.44519 0.756001 1.6875 1.6875 1.6875ZM5.55694 11.3181L12.3069 18.0681C12.636 18.3971 13.068 18.5625 13.5 18.5625C13.932 18.5625 14.364 18.3971 14.6931 18.0681L21.4431 11.3181C22.1029 10.6582 22.1029 9.59175 21.4431 8.93194C20.7832 8.27213 19.7168 8.27213 19.0569 8.93194L13.5 14.4889L7.94306 8.93194C7.28325 8.27213 6.21675 8.27213 5.55694 8.93194C4.89713 9.59175 4.89713 10.6582 5.55694 11.3181Z" fill="#20123A"/>
</svg>
