<svg width="22" height="14" viewBox="0 0 22 14" fill="none" xmlns="http://www.w3.org/2000/svg">
<path fill-rule="evenodd" clip-rule="evenodd" d="M3.56738 8L7.69422 12.1268C8.10225 12.5349 8.10225 13.1964 7.69422 13.6045C7.28619 14.0125 6.62464 14.0125 6.21661 13.6045L0.442369 7.83021C0.175537 7.65064 0 7.34582 0 7C0 6.99235 8.58307e-05 6.98472 0.000257492 6.97711C-0.00544357 6.70248 0.096489 6.42604 0.306055 6.21648L0.306152 6.21638L6.21651 0.306024C6.62454 -0.102008 7.28609 -0.102008 7.69412 0.306024C8.10215 0.714055 8.10215 1.37561 7.69412 1.78364L3.47776 6H21C21.5523 6 22 6.44772 22 7C22 7.55228 21.5523 8 21 8H3.56738Z" fill="#20123A"/>
</svg>
