<svg width="29" height="24" viewBox="0 0 29 24" fill="none" xmlns="http://www.w3.org/2000/svg">
<path fill-rule="evenodd" clip-rule="evenodd" d="M14.0812 6.38438L14.144 7.42244L13.0963 7.29533C9.28267 6.80808 5.95096 5.15564 3.12216 2.3804L1.73919 1.00337L1.38297 2.02025C0.628623 4.28706 1.11057 6.68097 2.68212 8.29103C3.52029 9.1808 3.3317 9.30791 1.88587 8.77829C1.38297 8.60881 0.942934 8.4817 0.901026 8.54525C0.754348 8.69355 1.25725 10.6214 1.65537 11.384C2.20018 12.4433 3.31075 13.4814 4.52609 14.0957L5.55284 14.583L4.3375 14.6042C3.16407 14.6042 3.12216 14.6254 3.24789 15.0702C3.66697 16.4473 5.32234 17.909 7.1663 18.5446L8.46546 18.9895L7.33393 19.6674C5.65761 20.6419 3.68792 21.1927 1.71824 21.2351C0.775302 21.2563 0 21.341 0 21.4046C0 21.6164 2.5564 22.8028 4.04414 23.2689C8.50736 24.6459 13.8088 24.0527 17.79 21.7012C20.6188 20.0276 23.4476 16.7015 24.7677 13.4814C25.4802 11.7654 26.1926 8.62999 26.1926 7.12585C26.1926 6.15134 26.2555 6.02423 27.4289 4.85905C28.1204 4.18113 28.77 3.43965 28.8957 3.2278C29.1052 2.82529 29.0843 2.82529 28.0156 3.18543C26.2345 3.82098 25.9831 3.73624 26.8632 2.78292C27.5127 2.10499 28.288 0.876262 28.288 0.516116C28.288 0.45256 27.9737 0.558486 27.6175 0.749151C27.2403 0.961002 26.4022 1.27878 25.7735 1.46944L24.642 1.82959L23.6153 1.13048C23.0495 0.749151 22.2533 0.32545 21.8342 0.19834C20.7655 -0.098251 19.1311 -0.0558809 18.1672 0.28308C15.5479 1.23641 13.8926 3.69387 14.0812 6.38438Z" fill="#20123A"/>
</svg>
